<svg width="40" height="40" viewBox="0 0 40 40" fill="none" xmlns="http://www.w3.org/2000/svg">
<path d="M27.6923 16.9231C27.6923 10.9856 22.8606 6.15385 16.9231 6.15385C10.9856 6.15385 6.15385 10.9856 6.15385 16.9231C6.15385 22.8606 10.9856 27.6923 16.9231 27.6923C22.8606 27.6923 27.6923 22.8606 27.6923 16.9231ZM40 36.9231C40 38.6058 38.6058 40 36.9231 40C36.1058 40 35.3125 39.6635 34.7596 39.0865L26.5144 30.8654C23.7019 32.8125 20.3365 33.8462 16.9231 33.8462C7.57212 33.8462 0 26.274 0 16.9231C0 7.57212 7.57212 0 16.9231 0C26.274 0 33.8462 7.57212 33.8462 16.9231C33.8462 20.3365 32.8125 23.7019 30.8654 26.5144L39.1106 34.7596C39.6635 35.3125 40 36.1058 40 36.9231Z" fill="#B7B7B7"/>
</svg>
