<svg width="40" height="40" viewBox="0 0 40 40" fill="none" xmlns="http://www.w3.org/2000/svg">
<path d="M39.378 0.245536C39.8467 0.580357 40.07 1.11607 39.9807 1.67411L34.2661 35.9598C34.1992 36.3839 33.9313 36.7411 33.5518 36.9643C33.3509 37.0759 33.1054 37.1429 32.8598 37.1429C32.6813 37.1429 32.5027 37.0982 32.3241 37.0312L22.2121 32.9018L16.81 39.4866C16.5422 39.8214 16.1404 40 15.7162 40C15.56 40 15.3814 39.9777 15.2252 39.9107C14.6671 39.7098 14.2876 39.1741 14.2876 38.5714V30.7812L33.5741 7.14286L9.71153 27.7902L0.894188 24.1741C0.380773 23.9732 0.0459377 23.5045 0.00129296 22.9464C-0.0210294 22.4107 0.246839 21.8973 0.715609 21.6295L37.86 0.200893C38.0833 0.0669643 38.3288 0 38.5744 0C38.8646 0 39.1547 0.0892857 39.378 0.245536Z" fill="#61677A"/>
</svg>
